<?xml version="1.0" encoding="UTF-8" standalone="no"?>
<svg width="1200" height="1800" viewBox="0 0 1200 1800" xmlns="http://www.w3.org/2000/svg">
	<!-- Hintergrund mit Rasentextur -->
	<defs>
		<pattern id="grass" patternUnits="userSpaceOnUse" width="200" height="200">
			<rect width="200" height="200" fill="#44aa22" />
			<!-- Horizontale Grasstreifen -->
			<rect y="0" width="200" height="100" fill="#3a9820" opacity="0.3" />
			<rect y="200" width="200" height="100" fill="#3a9820" opacity="0.3" />
			<rect y="400" width="200" height="100" fill="#3a9820" opacity="0.3" />
		</pattern>
		<!-- Rahmen -->
		<linearGradient id="border" x1="0%" y1="0%" x2="100%" y2="0%">
			<stop offset="0%" style="stop-color:#999999;stop-opacity:1" />
			<stop offset="100%" style="stop-color:#cccccc;stop-opacity:1" />
		</linearGradient>
	</defs>
	<!-- Grauer Rahmen -->
	<rect x="0" y="0" width="1200" height="1800" fill="url(#border)" />
	<!-- Spielfeld mit Rasentextur -->
	<rect x="20" y="20" width="1160" height="1760" fill="url(#grass)" />
	<!-- Weiße Linien -->
	<!-- Außenlinien -->
	<rect x="20" y="20" width="1160" height="1760" fill="none" stroke="white" stroke-width="6" />
	<!-- Mittellinie -->
	<line x1="20" y1="900" x2="1180" y2="900" stroke="white" stroke-width="6" />
	<!-- Mittelkreis -->
	<circle cx="600" cy="900" r="180" fill="none" stroke="white" stroke-width="6" />
	<circle cx="600" cy="900" r="6" fill="white" />
	<!-- Oberer Strafraum -->
	<rect x="300" y="20" width="600" height="320" fill="none" stroke="white" stroke-width="6" />
	<!-- Oberer Torraum -->
	<rect x="450" y="20" width="300" height="120" fill="none" stroke="white" stroke-width="6" />
	<!-- Oberes Tor -->
	<rect x="500" y="0" width="200" height="20" fill="none" stroke="white" stroke-width="4" />
	<!-- Oberer Elfmeterpunkt -->
	<circle cx="600" cy="220" r="6" fill="white" />
	<!-- Oberer Halbkreis -->
	<path d="M 450,340 A 150,150 0 0 0 750,340" fill="none" stroke="white" stroke-width="6" />
	<!-- Unterer Strafraum -->
	<rect x="300" y="1460" width="600" height="320" fill="none" stroke="white" stroke-width="6" />
	<!-- Unterer Torraum -->
	<rect x="450" y="1660" width="300" height="120" fill="none" stroke="white" stroke-width="6" />
	<!-- Unteres Tor -->
	<rect x="500" y="1780" width="200" height="20" fill="none" stroke="white" stroke-width="4" />
	<!-- Unterer Elfmeterpunkt -->
	<circle cx="600" cy="1580" r="6" fill="white" />
	<!-- Unterer Halbkreis -->
	<path d="M 450,1460 A 150,150 0 0 1 750,1460" fill="none" stroke="white" stroke-width="6" />
	<!-- Eckfahnen (Punkte an den Ecken) -->
	<circle cx="20" cy="20" r="6" fill="white" />
	<circle cx="1180" cy="20" r="6" fill="white" />
	<circle cx="20" cy="1780" r="6" fill="white" />
	<circle cx="1180" cy="1780" r="6" fill="white" />
	<!-- Eckball-Markierungen (kleine Viertelkreise) -->
	<!-- Obere linke Ecke -->
	<path d="M 20,50 A 30,30 0 0 0 50,20" fill="none" stroke="white" stroke-width="6" />
	<!-- Obere rechte Ecke -->
	<path d="M 1150,20 A 30,30 0 0 0 1180,50" fill="none" stroke="white" stroke-width="6" />
	<!-- Untere linke Ecke -->
	<path d="M 20,1750 A 30,30 0 0 1 50,1780" fill="none" stroke="white" stroke-width="6" />
	<!-- Untere rechte Ecke -->
	<path d="M 1150,1780 A 30,30 0 0 1 1180,1750" fill="none" stroke="white" stroke-width="6" />
</svg>
